<svg width="159" height="20" viewBox="0 0 159 20" fill="none" xmlns="http://www.w3.org/2000/svg">
<path d="M2.24432 19L0.301136 1.54545H3.07102L4.23011 15.0625H4.39205L10.1705 1.54545H12.9148L14.2102 15.071H14.3807L20.0057 1.54545H22.7841L15.0369 19H12.3864L10.8949 5.92614H10.7585L4.90341 19H2.24432ZM32.1279 19.2642C30.8836 19.2642 29.8438 18.9801 29.0086 18.4119C28.1734 17.8381 27.5853 17.0369 27.2444 16.0085C26.9091 14.9744 26.8523 13.7727 27.0739 12.4034C27.2898 11.0625 27.7245 9.89205 28.3779 8.89205C29.037 7.89205 29.8609 7.11648 30.8495 6.56534C31.8438 6.0142 32.9489 5.73864 34.1648 5.73864C35.4091 5.73864 36.4461 6.02557 37.2756 6.59943C38.1109 7.1733 38.6989 7.97727 39.0398 9.01136C39.3807 10.0455 39.4404 11.25 39.2188 12.625C39.0029 13.9545 38.5626 15.1193 37.8978 16.1193C37.2387 17.1136 36.4148 17.8864 35.4262 18.4375C34.4376 18.9886 33.3381 19.2642 32.1279 19.2642ZM32.2728 17.125C33.091 17.125 33.804 16.9091 34.412 16.4773C35.0256 16.0455 35.5256 15.4716 35.912 14.7557C36.2984 14.0398 36.5626 13.2557 36.7046 12.4034C36.8353 11.5795 36.8324 10.8267 36.6961 10.1449C36.5654 9.45739 36.2813 8.90625 35.8438 8.49148C35.4063 8.0767 34.7984 7.86932 34.0199 7.86932C33.2018 7.86932 32.483 8.08807 31.8637 8.52557C31.2501 8.95739 30.7501 9.53409 30.3637 10.2557C29.983 10.9773 29.7245 11.7642 29.5881 12.6165C29.4574 13.4347 29.4574 14.1875 29.5881 14.875C29.7188 15.5568 30.0029 16.1023 30.4404 16.5114C30.8779 16.9205 31.4887 17.125 32.2728 17.125ZM46.775 19L48.9568 5.90909H51.4199L51.0704 7.98864H51.2068C51.5591 7.28409 52.0733 6.73011 52.7494 6.3267C53.4255 5.91761 54.1471 5.71307 54.9142 5.71307C55.0789 5.71307 55.2664 5.71875 55.4767 5.73011C55.6869 5.7358 55.8574 5.75 55.988 5.77273L55.5789 8.21023C55.4824 8.18182 55.3062 8.15057 55.0505 8.11648C54.7949 8.0767 54.5307 8.05682 54.2579 8.05682C53.6613 8.05682 53.1074 8.18466 52.596 8.44034C52.0846 8.69034 51.6557 9.03977 51.3091 9.48864C50.9625 9.93182 50.738 10.4375 50.6358 11.0057L49.3233 19H46.775ZM64.8695 14.5597L65.3553 11.4489H65.807L71.9604 5.90909H75.0115L68.0229 12.2159H67.6223L64.8695 14.5597ZM61.7928 19L64.6905 1.54545H67.2388L64.3411 19H61.7928ZM70.0598 19L66.4121 12.7784L68.449 10.9972L73.1877 19H70.0598ZM81.611 19V1.54545H93.5258V4.97159H85.8298V8.55114H92.7673V11.9858H85.8298V19H81.611ZM106.56 19.2472C105.185 19.2472 104.003 18.9659 103.014 18.4034C102.032 17.8352 101.273 17.0455 100.739 16.0341C100.211 15.017 99.9463 13.8381 99.9463 12.4972C99.9463 11.1506 100.211 9.97159 100.739 8.96023C101.273 7.94318 102.032 7.15341 103.014 6.59091C104.003 6.02273 105.185 5.73864 106.56 5.73864C107.935 5.73864 109.114 6.02273 110.097 6.59091C111.086 7.15341 111.844 7.94318 112.372 8.96023C112.907 9.97159 113.174 11.1506 113.174 12.4972C113.174 13.8381 112.907 15.017 112.372 16.0341C111.844 17.0455 111.086 17.8352 110.097 18.4034C109.114 18.9659 107.935 19.2472 106.56 19.2472ZM106.586 16.1023C107.086 16.1023 107.509 15.9489 107.855 15.642C108.202 15.3352 108.466 14.9091 108.648 14.3636C108.836 13.8182 108.929 13.1875 108.929 12.4716C108.929 11.7443 108.836 11.108 108.648 10.5625C108.466 10.017 108.202 9.59091 107.855 9.28409C107.509 8.97727 107.086 8.82386 106.586 8.82386C106.068 8.82386 105.631 8.97727 105.273 9.28409C104.921 9.59091 104.651 10.017 104.463 10.5625C104.282 11.108 104.191 11.7443 104.191 12.4716C104.191 13.1875 104.282 13.8182 104.463 14.3636C104.651 14.9091 104.921 15.3352 105.273 15.642C105.631 15.9489 106.068 16.1023 106.586 16.1023ZM125.236 1.54545V19H121.069V1.54545H125.236ZM133.649 19V5.90909H137.816V19H133.649ZM135.737 4.38352C135.152 4.38352 134.649 4.19034 134.228 3.80398C133.808 3.41193 133.598 2.94034 133.598 2.3892C133.598 1.84375 133.808 1.37784 134.228 0.991477C134.649 0.599431 135.152 0.403408 135.737 0.403408C136.328 0.403408 136.831 0.599431 137.245 0.991477C137.666 1.37784 137.876 1.84375 137.876 2.3892C137.876 2.94034 137.666 3.41193 137.245 3.80398C136.831 4.19034 136.328 4.38352 135.737 4.38352ZM152.34 19.2472C150.965 19.2472 149.783 18.9659 148.794 18.4034C147.812 17.8352 147.053 17.0455 146.519 16.0341C145.991 15.017 145.726 13.8381 145.726 12.4972C145.726 11.1506 145.991 9.97159 146.519 8.96023C147.053 7.94318 147.812 7.15341 148.794 6.59091C149.783 6.02273 150.965 5.73864 152.34 5.73864C153.715 5.73864 154.894 6.02273 155.877 6.59091C156.866 7.15341 157.624 7.94318 158.152 8.96023C158.687 9.97159 158.954 11.1506 158.954 12.4972C158.954 13.8381 158.687 15.017 158.152 16.0341C157.624 17.0455 156.866 17.8352 155.877 18.4034C154.894 18.9659 153.715 19.2472 152.34 19.2472ZM152.366 16.1023C152.866 16.1023 153.289 15.9489 153.635 15.642C153.982 15.3352 154.246 14.9091 154.428 14.3636C154.616 13.8182 154.709 13.1875 154.709 12.4716C154.709 11.7443 154.616 11.108 154.428 10.5625C154.246 10.017 153.982 9.59091 153.635 9.28409C153.289 8.97727 152.866 8.82386 152.366 8.82386C151.848 8.82386 151.411 8.97727 151.053 9.28409C150.701 9.59091 150.431 10.017 150.243 10.5625C150.062 11.108 149.971 11.7443 149.971 12.4716C149.971 13.1875 150.062 13.8182 150.243 14.3636C150.431 14.9091 150.701 15.3352 151.053 15.642C151.411 15.9489 151.848 16.1023 152.366 16.1023Z" fill="#0000FE"/>
</svg>
